<?xml version="1.0" encoding="UTF-8" standalone="no"?>
<svg
   xmlns:dc="http://purl.org/dc/elements/1.1/"
   xmlns:cc="http://creativecommons.org/ns#"
   xmlns:rdf="http://www.w3.org/1999/02/22-rdf-syntax-ns#"
   xmlns:svg="http://www.w3.org/2000/svg"
   xmlns="http://www.w3.org/2000/svg"
   xmlns:sodipodi="http://sodipodi.sourceforge.net/DTD/sodipodi-0.dtd"
   xmlns:inkscape="http://www.inkscape.org/namespaces/inkscape"
   width="100mm"
   height="100mm"
   viewBox="0 0 100 100"
   version="1.1"
   id="svg8"
   inkscape:version="1.0.1 (c497b03c, 2020-09-10)"
   sodipodi:docname="passwordIcon.svg">
  <defs
     id="defs2" />
  <sodipodi:namedview
     id="base"
     pagecolor="#ffffff"
     bordercolor="#666666"
     borderopacity="1.0"
     inkscape:pageopacity="0.0"
     inkscape:pageshadow="2"
     inkscape:zoom="0.96722709"
     inkscape:cx="218.15959"
     inkscape:cy="232.01857"
     inkscape:document-units="mm"
     inkscape:current-layer="layer1"
     inkscape:document-rotation="0"
     showgrid="false"
     width="100mm"
     inkscape:window-width="1252"
     inkscape:window-height="806"
     inkscape:window-x="0"
     inkscape:window-y="23"
     inkscape:window-maximized="0">
    <inkscape:grid
       type="xygrid"
       id="grid833" />
  </sodipodi:namedview>
  <metadata
     id="metadata5">
    <rdf:RDF>
      <cc:Work
         rdf:about="">
        <dc:format>image/svg+xml</dc:format>
        <dc:type
           rdf:resource="http://purl.org/dc/dcmitype/StillImage" />
        <dc:title />
      </cc:Work>
    </rdf:RDF>
  </metadata>
  <g
     inkscape:label="Layer 1"
     inkscape:groupmode="layer"
     id="layer1">
    <path
       style="fill:#333333;stroke:#000000;stroke-width:0.26458300000000001px;stroke-linecap:butt;stroke-linejoin:miter;stroke-opacity:1;fill-opacity:1"
       d="M 0,0 V 100.54167 H 100.54167 V 0 Z"
       id="path835" />
    <g
       id="g898"
       transform="matrix(0.14936491,0,0,0.14185635,12.040566,13.414728)"
       style="fill:#ffffff">
      <g
         id="g841"
         style="fill:#ffffff">
        <g
           id="g839"
           style="fill:#ffffff">
          <path
             d="M 463.748,48.251 C 399.412,-16.085 294.735,-16.084 230.399,48.252 186.454,92.197 171.19,156.958 190.218,215.713 L 4.396,401.536 c -2.813,2.813 -4.395,6.621 -4.395,10.606 V 497 c 0,8.291 6.709,15 15,15 h 84.858 c 3.984,0 7.793,-1.582 10.605,-4.395 l 21.211,-21.226 c 3.237,-3.237 4.819,-7.778 4.292,-12.334 l -2.637,-22.793 31.582,-2.974 c 7.178,-0.674 12.847,-6.343 13.521,-13.521 l 2.974,-31.582 22.793,2.651 c 4.233,0.571 8.496,-0.85 11.704,-3.691 3.193,-2.856 5.024,-6.929 5.024,-11.206 V 363 h 27.422 c 3.984,0 7.793,-1.582 10.605,-4.395 l 38.467,-37.958 c 58.74,19.043 122.381,4.929 166.326,-39.046 64.336,-64.335 64.336,-169.014 0,-233.35 z m -42.435,106.07 c -17.549,17.549 -46.084,17.549 -63.633,0 -17.549,-17.549 -17.549,-46.084 0,-63.633 17.549,-17.549 46.084,-17.549 63.633,0 17.549,17.549 17.548,46.084 0,63.633 z"
             id="path837"
             style="fill:#ffffff" />
        </g>
      </g>
      <g
         id="g843"
         style="fill:#ffffff" />
      <g
         id="g845"
         style="fill:#ffffff" />
      <g
         id="g847"
         style="fill:#ffffff" />
      <g
         id="g849"
         style="fill:#ffffff" />
      <g
         id="g851"
         style="fill:#ffffff" />
      <g
         id="g853"
         style="fill:#ffffff" />
      <g
         id="g855"
         style="fill:#ffffff" />
      <g
         id="g857"
         style="fill:#ffffff" />
      <g
         id="g859"
         style="fill:#ffffff" />
      <g
         id="g861"
         style="fill:#ffffff" />
      <g
         id="g863"
         style="fill:#ffffff" />
      <g
         id="g865"
         style="fill:#ffffff" />
      <g
         id="g867"
         style="fill:#ffffff" />
      <g
         id="g869"
         style="fill:#ffffff" />
      <g
         id="g871"
         style="fill:#ffffff" />
    </g>
  </g>
</svg>
