<?xml version="1.0" encoding="UTF-8" standalone="no"?>
<svg
   xmlns:dc="http://purl.org/dc/elements/1.1/"
   xmlns:cc="http://creativecommons.org/ns#"
   xmlns:rdf="http://www.w3.org/1999/02/22-rdf-syntax-ns#"
   xmlns:svg="http://www.w3.org/2000/svg"
   xmlns="http://www.w3.org/2000/svg"
   xmlns:sodipodi="http://sodipodi.sourceforge.net/DTD/sodipodi-0.dtd"
   xmlns:inkscape="http://www.inkscape.org/namespaces/inkscape"
   version="1.1"
   id="Capa_1"
   x="0px"
   y="0px"
   viewBox="0 0 250 120"
   xml:space="preserve"
   sodipodi:docname="ps4-logo.svg"
   width="250"
   height="120"
   inkscape:version="1.0.1 (c497b03c, 2020-09-10)"><metadata
   id="metadata912"><rdf:RDF><cc:Work
       rdf:about=""><dc:format>image/svg+xml</dc:format><dc:type
         rdf:resource="http://purl.org/dc/dcmitype/StillImage" /><dc:title></dc:title></cc:Work></rdf:RDF></metadata><defs
   id="defs910" /><sodipodi:namedview
   pagecolor="#ffffff"
   bordercolor="#666666"
   borderopacity="1"
   objecttolerance="10"
   gridtolerance="10"
   guidetolerance="10"
   inkscape:pageopacity="0"
   inkscape:pageshadow="2"
   inkscape:window-width="1440"
   inkscape:window-height="900"
   id="namedview908"
   showgrid="true"
   inkscape:zoom="3.0877169"
   inkscape:cx="156.33896"
   inkscape:cy="61.10315"
   inkscape:window-x="0"
   inkscape:window-y="0"
   inkscape:window-maximized="0"
   inkscape:current-layer="Capa_1"><inkscape:grid
     type="xygrid"
     id="grid1343" /></sodipodi:namedview>
















<g
   id="g877">
</g>
<g
   id="g879">
</g>
<g
   id="g881">
</g>
<g
   id="g883">
</g>
<g
   id="g885">
</g>
<g
   id="g887">
</g>
<g
   id="g889">
</g>
<g
   id="g891">
</g>
<g
   id="g893">
</g>
<g
   id="g895">
</g>
<g
   id="g897">
</g>
<g
   id="g899">
</g>
<g
   id="g901">
</g>
<g
   id="g903">
</g>
<g
   id="g905">
</g>
<path
   style="fill:#003791;stroke:none;stroke-width:1px;stroke-linecap:butt;stroke-linejoin:miter;stroke-opacity:1;fill-opacity:1"
   d="M 0,0 V 120 H 250 V 0 Z"
   id="path1345" /><path
   id="path833"
   style="fill:#ffffff;stroke-width:0.266755"
   d="M 99.073006,60.294492 C 61.696112,72.192306 55.981071,73.592228 50.24958,77.395664 c -5.525617,3.674571 -3.504978,10.048934 8.630696,13.114993 13.02819,3.846013 26.240429,4.597178 38.643824,2.7883 0.814456,-0.127262 1.687562,-0.247999 2.47637,-0.376769 l 0.29998,-1.795584 c -0.0267,-0.01543 -0.0658,-0.03822 -0.0908,-0.05278 -0.767547,-0.04463 -1.653588,-0.287508 -1.587422,-1.239294 0.04663,-0.671203 0.299641,-0.88114 0.63354,-0.969058 -0.02575,-0.137489 -0.05063,-0.268851 -0.11174,-0.612498 -0.007,-0.04021 0.0043,-0.08068 0.01653,-0.120824 -0.01366,-0.100986 -0.0241,-0.199945 -0.03027,-0.297864 -0.03349,-0.05902 -0.06629,-0.117842 -0.01435,-0.136605 0.0026,-8.66e-4 0.0052,-0.0017 0.0078,-0.0026 0.0026,-0.159622 0.03123,-0.317433 0.113384,-0.477376 -0.05924,0.0069 -0.118447,0.01447 -0.178889,0.01577 -0.201263,0.0043 -0.08534,-0.35273 -0.121648,-0.530143 -0.05855,-0.28633 -0.149608,-0.736303 -0.02966,-1.086424 -0.08995,-0.03172 0.0214,-0.237539 0.02036,-0.347184 -0.0052,-0.561289 -0.01914,-1.122318 -0.01923,-1.683634 0.0026,-0.279761 0.0026,-0.559591 0.0026,-0.839352 -0.09378,-0.160566 -0.187875,-0.352036 -0.281269,-0.586369 -0.06307,-0.158252 0.08904,-0.382507 0.329706,-0.587348 L 87.605446,85.2865 c -4.578709,1.470534 -11.304529,1.772238 -15.021153,0.684991 -3.714938,-1.083712 -3.018581,-3.160278 1.56266,-4.638135 L 99.88106,73.076713 c -0.08003,-0.06101 -0.15528,-0.126318 -0.222924,-0.198741 -0.313778,-0.335822 -0.171042,-0.762006 -0.05506,-1.123904 1.7e-5,-0.04801 0.0043,-0.09703 4.78e-4,-0.143997 0.100318,-1.058172 -0.169616,-2.087434 -0.279616,-3.133517 0.02236,-0.747144 0.06942,-1.487588 0.06002,-2.235971 -0.01888,-0.933553 -0.0091,-1.867487 -0.007,-2.801127 -0.02732,-0.321635 0.03889,-0.652561 -8.7e-4,-0.972992 -0.128339,-1.02869 -0.06359,0.04411 -0.204761,-0.88965 -0.04089,-0.270315 -0.05472,-0.543013 -0.08203,-0.814696 -0.03506,-0.152455 -0.03123,-0.309477 -0.01705,-0.467513 z m 1.936404,10.594971 c -0.0918,0.02583 -1.178422,0.539485 -1.209843,0.564166 -0.03236,0.02539 -0.05437,0.0565 -0.07098,0.09123 1.006043,-0.498529 1.333893,-0.670327 1.280843,-0.655395 z m 0.0683,0.748114 c 0.0258,0.107755 0.0514,0.201228 0.0771,0.29737 -0.004,-0.09125 -0.008,-0.182439 -0.011,-0.273703 -0.0221,-0.0078 -0.0426,-0.01473 -0.066,-0.02366 z m -1.499368,14.938187 c -0.119134,0.0559 -0.238965,0.11117 -0.355029,0.171131 0.106138,0.0078 0.21419,0.02505 0.322555,0.04532 0.0017,-0.0169 0.0017,-0.03397 0.0044,-0.05078 0.01174,-0.07262 0.01705,-0.0984 0.0281,-0.165697 z m 1.188378,0.126743 c -0.0381,0.01335 -0.076,0.02808 -0.11394,0.04238 0.0374,0.01525 0.0751,0.02981 0.11229,0.04541 4.8e-4,-0.02921 8.7e-4,-0.0585 0.002,-0.08778 z m -1.224705,0.458136 c -0.09768,0.02565 -0.196853,0.04376 -0.297232,0.05624 0.123249,0.108587 0.249212,0.215051 0.374297,0.322034 0.0078,-0.112625 0.0026,-0.190776 -0.06603,-0.131673 -2.87e-4,-0.08198 -0.0061,-0.164328 -0.01105,-0.246578 z m 0.859215,0.997656 c -0.015,0.0069 -0.0296,0.01456 -0.0446,0.02123 0.039,0.03493 0.0765,0.07124 0.11504,0.106525 -0.024,-0.04238 -0.0466,-0.08528 -0.0705,-0.127731 z m -1.046362,0.970531 c -0.0308,0.06092 -0.06089,0.121127 -0.105129,0.214028 -0.05063,0.106421 -0.0207,0.459852 0.0061,0.34669 0.03949,-0.166815 0.06159,-0.297457 0.07873,-0.413263 -0.0052,-0.02695 -0.0052,-0.05139 0.0093,-0.06803 0.0035,-0.02669 0.0078,-0.0552 0.01105,-0.07938 z m 1.002332,1.621992 c -0.0943,0.02427 -0.18855,0.04836 -0.28292,0.07254 -0.09459,0.02418 0.21686,-0.0043 0.28292,-0.07254 z" /><path
   id="path841"
   style="fill:#ffffff;stroke-width:0.266755"
   d="m 160.54054,72.247154 c -2.56682,0.01456 -5.07188,0.139673 -7.45993,0.374803 -10.90497,1.084214 -18.66278,3.538884 -18.66278,3.538884 l -1.19884,0.360989 c 0.38846,0.798248 0.25084,1.993917 0.18385,2.678829 0.10357,0.586153 0.20253,1.173146 0.31099,1.758588 0.10705,0.577833 0.22505,1.154202 0.33576,1.731472 0.0624,0.325344 0.124,0.650637 0.1833,0.97645 0.009,0.04688 0.0731,0.136613 0.0203,0.141536 -0.31489,0.02938 -0.58283,0.06335 -0.81518,0.09813 0.22035,0.0715 0.42906,0.162135 0.61152,0.295403 0.27995,0.204522 -0.005,0.647353 -0.003,0.971025 0.003,0.222773 0.01,0.445623 0.0198,0.66823 2.7e-4,0.0061 0.005,0.01482 0.008,0.02219 0.009,-0.0035 0.0174,-0.0061 0.0258,-0.0099 -0.002,0.03128 -0.003,0.04983 -0.004,0.07843 2.9e-4,0.0035 7e-5,0.0061 -4.8e-4,0.0087 -0.0137,0.262498 -0.0206,0.420464 -0.0886,0.491189 0.0665,0.03328 0.13346,0.06595 0.19651,0.105536 0.27614,0.173332 0.0785,0.600426 0.11228,0.900994 0.0552,0.490409 0.093,0.89563 -0.0352,1.371463 -0.0627,0.103837 -0.37627,0.633383 -0.65831,1.082974 l 26.1051,-8.243601 c 4.57279,-1.464216 11.29629,-1.787498 15.0118,-0.690909 3.71267,1.084214 3.01941,3.169126 -1.56212,4.63764 L 134.09013,98.08043 v 2.40363 0.80632 c 0,0.14746 -0.0297,0.29781 0,0.44285 0.0351,0.17187 0.12759,0.33006 0.19154,0.49513 0.46934,1.00522 0.61681,2.11634 0.83501,3.18184 0.1353,0.66076 -0.0189,1.14208 -0.29944,1.42572 0.1441,1.23778 0.27033,2.44473 0.20201,3.69226 -0.005,0.0892 -0.0174,0.16955 -0.0291,0.25102 l 52.65511,-16.9486 c 0,0 7.35721,-2.424131 10.36674,-5.821211 3.00419,-3.396327 1.6712,-8.324872 -10.14601,-11.674479 -8.20511,-2.78278 -18.15818,-4.139744 -27.3254,-4.087773 z M 132.93112,85.85974 c 0.0154,0.08519 0.0296,0.166217 0.0429,0.242635 0.0839,0.01751 0.16682,0.03683 0.24934,0.05668 0.21679,-0.06881 0.43352,-0.138095 0.644,-0.215016 -0.38973,-0.01265 -0.69655,-0.04368 -0.93628,-0.08432 z m -2.11639,3.801738 c -0.0378,0.09096 -0.11788,0.166243 -0.20586,0.225866 0.0277,-4.59e-4 0.0597,-0.0026 0.0881,-0.0026 0.0757,-0.05832 0.1497,-0.118319 0.22292,-0.179017 -0.0348,-0.0143 -0.0696,-0.02903 -0.10513,-0.04394 z m -0.43153,0.01179 c -0.007,0.0017 -0.0127,0.0026 -0.0192,0.0035 0.0125,0.01083 0.0219,0.01889 0.0319,0.02764 -0.003,-0.01083 -0.009,-0.02045 -0.0126,-0.03102 z m 2.45876,21.515902 c -0.0225,0.009 -0.0448,0.017 -0.0672,0.0257 l 0.0804,0.25102 0.10018,-0.0326 c -0.0415,-0.0753 -0.0801,-0.15545 -0.11339,-0.24412 z" /><path
   id="path849"
   style="fill:#ffffff;stroke-width:0.266755"
   d="m 107.03673,5.7110177 c -1.14057,0.023312 -2.99377,0.5034082 -2.99377,3.3771308 V 104.33777 l 25.07085,7.12857 V 28.20928 c 0,-3.889699 1.93772,-6.504884 5.07549,-5.603734 4.08834,1.018827 4.88779,4.613877 4.88779,8.510397 v 31.271512 c 0,1.849782 1.48326,2.56525 1.68871,2.655638 14.81717,5.569555 26.2317,-1.333478 26.2317,-18.5249 4.7e-4,-18.314789 -7.19191,-26.446709 -28.4213,-32.959583 -7.39859,-2.239135 -20.43943,-5.7822919 -30.73144,-7.790387 -0.12683,-0.021925 -0.42783,-0.064996 -0.80803,-0.057197 z" /><polygon
   style="fill:#ffffff"
   points="163.841,374.242 186.892,381.557 186.892,365.857 "
   id="polygon857"
   transform="matrix(0.28181863,0,0,0.25249584,47.330353,-11.130603)" /><polygon
   style="fill:#ffffff"
   points="163.498,290.027 186.892,297.451 186.892,281.71 "
   id="polygon859"
   transform="matrix(0.28181863,0,0,0.25249584,47.330353,-11.130603)" /><polygon
   style="fill:#ffffff;fill-opacity:1"
   points="275.94,465.419 364.726,433.522 288.669,409.385 275.94,413.919 "
   id="polygon861"
   transform="matrix(0.28181863,0,0,0.25249584,55.089927,-6.0502613)" /><path
   style="fill:#ffffff;stroke-width:0.266755"
   d="m 135.3282,75.891965 c -0.59069,0.167656 -0.90971,0.268148 -0.90971,0.268148 l -1.56268,0.47065 v 13.502726 l 24.90459,-7.863226 z"
   id="path865" /><path
   style="fill:#ffffff;stroke-width:0.266755"
   d="M 95.067892,61.571025 C 59.855218,72.787142 61.489205,72.208417 58.435134,73.392621 l 21.454009,6.100044 20.111137,-6.444697 V 62.973633 Z"
   id="path873" /><path
   style="fill:#ffffff;stroke:none;stroke-width:0.26675500000000002px;stroke-linecap:butt;stroke-linejoin:miter;stroke-opacity:1"
   d="m 99.999995,85.210949 4.75e-4,7.711239 -11.776246,-3.920282 5.279581,-5.637966 z"
   id="path1327" /></svg>
