<?xml version="1.0" encoding="UTF-8" standalone="no"?>
<svg
   xmlns:dc="http://purl.org/dc/elements/1.1/"
   xmlns:cc="http://creativecommons.org/ns#"
   xmlns:rdf="http://www.w3.org/1999/02/22-rdf-syntax-ns#"
   xmlns:svg="http://www.w3.org/2000/svg"
   xmlns="http://www.w3.org/2000/svg"
   xmlns:sodipodi="http://sodipodi.sourceforge.net/DTD/sodipodi-0.dtd"
   xmlns:inkscape="http://www.inkscape.org/namespaces/inkscape"
   version="1.1"
   id="Capa_1"
   x="0px"
   y="0px"
   viewBox="0 0 120 120"
   xml:space="preserve"
   sodipodi:docname="ps4Square.svg"
   width="120"
   height="120"
   inkscape:version="1.0.1 (c497b03c, 2020-09-10)"><metadata
   id="metadata912"><rdf:RDF><cc:Work
       rdf:about=""><dc:format>image/svg+xml</dc:format><dc:type
         rdf:resource="http://purl.org/dc/dcmitype/StillImage" /><dc:title /></cc:Work></rdf:RDF></metadata><defs
   id="defs910" /><sodipodi:namedview
   pagecolor="#ffffff"
   bordercolor="#666666"
   borderopacity="1"
   objecttolerance="10"
   gridtolerance="10"
   guidetolerance="10"
   inkscape:pageopacity="0"
   inkscape:pageshadow="2"
   inkscape:window-width="1440"
   inkscape:window-height="805"
   id="namedview908"
   showgrid="true"
   inkscape:zoom="1.9348129"
   inkscape:cx="58.529759"
   inkscape:cy="71.784537"
   inkscape:window-x="0"
   inkscape:window-y="23"
   inkscape:window-maximized="0"
   inkscape:current-layer="Capa_1"
   inkscape:document-rotation="0"><inkscape:grid
     type="xygrid"
     id="grid1343" /></sodipodi:namedview>
















<g
   id="g877"
   transform="matrix(0.66014556,0,0,0.76612661,-21.014556,14.032403)">
</g>
<g
   id="g879"
   transform="matrix(0.66014556,0,0,0.76612661,-21.014556,14.032403)">
</g>
<g
   id="g881"
   transform="matrix(0.66014556,0,0,0.76612661,-21.014556,14.032403)">
</g>
<g
   id="g883"
   transform="matrix(0.66014556,0,0,0.76612661,-21.014556,14.032403)">
</g>
<g
   id="g885"
   transform="matrix(0.66014556,0,0,0.76612661,-21.014556,14.032403)">
</g>
<g
   id="g887"
   transform="matrix(0.66014556,0,0,0.76612661,-21.014556,14.032403)">
</g>
<g
   id="g889"
   transform="matrix(0.66014556,0,0,0.76612661,-21.014556,14.032403)">
</g>
<g
   id="g891"
   transform="matrix(0.66014556,0,0,0.76612661,-21.014556,14.032403)">
</g>
<g
   id="g893"
   transform="matrix(0.66014556,0,0,0.76612661,-21.014556,14.032403)">
</g>
<g
   id="g895"
   transform="matrix(0.66014556,0,0,0.76612661,-21.014556,14.032403)">
</g>
<g
   id="g897"
   transform="matrix(0.66014556,0,0,0.76612661,-21.014556,14.032403)">
</g>
<g
   id="g899"
   transform="matrix(0.66014556,0,0,0.76612661,-21.014556,14.032403)">
</g>
<g
   id="g901"
   transform="matrix(0.66014556,0,0,0.76612661,-21.014556,14.032403)">
</g>
<g
   id="g903"
   transform="matrix(0.66014556,0,0,0.76612661,-21.014556,14.032403)">
</g>
<g
   id="g905"
   transform="matrix(0.66014556,0,0,0.76612661,-21.014556,14.032403)">
</g>
<path
   style="fill:#003791;fill-opacity:1;stroke:none;stroke-width:0.69282px;stroke-linecap:butt;stroke-linejoin:miter;stroke-opacity:1"
   d="M 0,0 V 120 H 120 V 0 Z"
   id="path1345" /><path
   id="path833"
   style="fill:#ffffff;stroke-width:0.189707"
   d="m 44.388048,60.225618 c -24.674191,9.115231 -28.44695,10.187749 -32.230567,13.101663 -3.6477122,2.815186 -2.3137964,7.698755 5.697515,10.047744 8.600501,2.946533 17.322502,3.522021 25.510549,2.136192 0.53766,-0.0975 1.114036,-0.19 1.634763,-0.288653 l 0.198031,-1.375645 c -0.01762,-0.01182 -0.04343,-0.02928 -0.05994,-0.04044 -0.506693,-0.0342 -1.091609,-0.220268 -1.04793,-0.949456 0.03078,-0.514227 0.197807,-0.675065 0.418229,-0.742422 -0.017,-0.105333 -0.03342,-0.205973 -0.07377,-0.46925 -0.0047,-0.03081 0.0028,-0.06181 0.01091,-0.09257 -0.009,-0.07737 -0.01591,-0.153183 -0.01998,-0.228202 -0.0221,-0.04521 -0.04376,-0.09028 -0.0095,-0.104657 0.0018,-6.62e-4 0.0035,-0.0013 0.0051,-0.002 0.0018,-0.122291 0.02063,-0.243194 0.07485,-0.36573 -0.03911,0.0052 -0.07818,0.01108 -0.118093,0.01208 -0.132862,0.0033 -0.05633,-0.270236 -0.0803,-0.406156 -0.03864,-0.219365 -0.09876,-0.564101 -0.01958,-0.832339 -0.05938,-0.02431 0.01412,-0.181985 0.01344,-0.265986 -0.0035,-0.43002 -0.01263,-0.859838 -0.01269,-1.289878 0.0018,-0.214332 0.0018,-0.428717 0.0018,-0.643049 -0.06191,-0.123014 -0.124025,-0.269704 -0.185678,-0.449233 -0.04164,-0.121241 0.05877,-0.293049 0.217654,-0.449983 l -7.49506,2.844995 c -3.022614,1.126615 -7.462634,1.357758 -9.916148,0.52479 -2.452398,-0.830261 -1.992702,-2.421174 1.031585,-3.553399 L 44.921494,70.0184 c -0.05283,-0.04674 -0.102508,-0.09677 -0.147162,-0.152261 -0.207141,-0.257281 -0.112913,-0.583793 -0.03636,-0.861052 1.2e-5,-0.03678 0.0028,-0.07434 3.16e-4,-0.11032 0.06623,-0.810693 -0.111971,-1.599239 -0.184587,-2.400671 0.01476,-0.572407 0.04583,-1.139681 0.03962,-1.713037 -0.01246,-0.715219 -0.006,-1.430731 -0.0047,-2.146018 -0.01804,-0.246413 0.02567,-0.499944 -5.75e-4,-0.745435 -0.08472,-0.788106 -0.04198,0.03379 -0.135172,-0.681585 -0.02699,-0.207095 -0.03613,-0.416016 -0.05416,-0.62416 -0.02315,-0.116799 -0.02062,-0.237098 -0.01126,-0.358174 z m 1.278308,8.117089 c -0.0606,0.01979 -0.777929,0.413313 -0.798672,0.432222 -0.02136,0.01945 -0.03589,0.04329 -0.04685,0.06989 0.664135,-0.381937 0.880564,-0.513556 0.845543,-0.502116 z m 0.04509,0.57315 c 0.01703,0.08255 0.03394,0.154166 0.0509,0.227823 -0.0026,-0.06991 -0.0052,-0.139771 -0.0072,-0.209692 -0.01459,-0.006 -0.02812,-0.01129 -0.04357,-0.01813 z m -0.9898,11.444542 c -0.07864,0.04283 -0.157752,0.08517 -0.234371,0.131109 0.07006,0.006 0.141396,0.01919 0.212933,0.03472 10e-4,-0.01295 10e-4,-0.02602 0.0029,-0.03891 0.0078,-0.05563 0.01126,-0.07538 0.01854,-0.126945 z m 0.784501,0.0971 c -0.02515,0.01023 -0.05017,0.02151 -0.07522,0.03247 0.02469,0.01168 0.04957,0.02283 0.07413,0.03479 3.17e-4,-0.02238 5.75e-4,-0.04483 0.0013,-0.06725 z m -0.808483,0.350991 c -0.06449,0.01966 -0.129951,0.03352 -0.196217,0.04308 0.08136,0.08319 0.164516,0.164755 0.247091,0.246718 0.0051,-0.08629 0.0018,-0.146159 -0.04359,-0.100879 -1.89e-4,-0.06281 -0.004,-0.125896 -0.0073,-0.188909 z m 0.56721,0.764332 c -0.0099,0.0052 -0.01953,0.01115 -0.02944,0.01627 0.02575,0.02676 0.05051,0.05457 0.07594,0.08161 -0.01584,-0.03246 -0.03077,-0.06533 -0.04654,-0.09786 z m -0.690751,0.743549 c -0.02033,0.04667 -0.0402,0.0928 -0.0694,0.163973 -0.03342,0.08153 -0.01367,0.352304 0.004,0.265608 0.02607,-0.127802 0.04066,-0.227889 0.05197,-0.316611 -0.0035,-0.02065 -0.0035,-0.03937 0.0062,-0.05212 0.0023,-0.02044 0.0051,-0.0423 0.0073,-0.06082 z m 0.661685,1.242652 c -0.06226,0.01859 -0.124471,0.03705 -0.186768,0.05558 -0.06244,0.01852 0.143159,-0.0033 0.186768,-0.05558 z" /><path
   id="path841"
   style="fill:#ffffff;stroke-width:0.189707"
   d="m 84.965567,69.38287 c -1.694475,0.01116 -3.348179,0.107008 -4.92464,0.287146 -7.198868,0.830646 -12.320151,2.711234 -12.320151,2.711234 l -0.79141,0.276563 c 0.256441,0.611559 0.165593,1.527594 0.121369,2.052322 0.06838,0.449068 0.133698,0.898779 0.205299,1.347301 0.07067,0.442694 0.148565,0.884265 0.221649,1.326527 0.0412,0.249255 0.08185,0.49847 0.121006,0.748085 0.0059,0.03591 0.04825,0.104662 0.0134,0.108434 -0.207873,0.02251 -0.384752,0.04854 -0.538136,0.07518 0.145464,0.05477 0.283241,0.124215 0.403691,0.226315 0.184808,0.15669 -0.0034,0.495954 -0.0021,0.743929 0.0021,0.170672 0.0065,0.341404 0.01307,0.511949 1.78e-4,0.0046 0.0034,0.01135 0.0052,0.01699 0.0059,-0.0026 0.01149,-0.0046 0.01703,-0.0076 -0.0013,0.02397 -0.0021,0.03818 -0.0026,0.06009 1.92e-4,0.0026 4.6e-5,0.0046 -3.17e-4,0.0067 -0.009,0.201108 -0.0136,0.322129 -0.05848,0.376314 0.0439,0.0255 0.0881,0.05052 0.129724,0.08085 0.182292,0.132795 0.05182,0.460002 0.07412,0.690276 0.03644,0.375716 0.06139,0.686166 -0.02324,1.050714 -0.04138,0.07956 -0.248393,0.485252 -0.43458,0.829696 l 17.233123,-6.315606 c 3.018709,-1.121775 7.457192,-1.369449 9.909974,-0.529323 2.450912,0.830644 1.993252,2.427952 -1.031227,3.553018 l -25.803097,9.564503 v 1.841484 0.617743 c 0,0.112974 -0.01961,0.228161 0,0.339279 0.02318,0.131675 0.08424,0.252868 0.126445,0.379332 0.309832,0.770129 0.407184,1.621391 0.551227,2.437694 0.08932,0.506223 -0.01247,0.874983 -0.197674,1.092283 0.09513,0.948301 0.178457,1.872973 0.133356,2.828744 -0.0034,0.0683 -0.01148,0.129895 -0.0192,0.192305 L 102.85856,85.918562 c 0,0 4.85683,-1.857191 6.84356,-4.459785 1.98321,-2.602016 1.10324,-6.377905 -6.69784,-8.944129 C 97.587716,70.382686 91.017242,69.34308 84.965541,69.382897 Z M 66.739331,79.811834 c 0.01016,0.06527 0.01953,0.127343 0.02832,0.18589 0.05539,0.01341 0.110126,0.02821 0.164602,0.04342 0.143112,-0.05272 0.286186,-0.105799 0.425133,-0.164729 -0.257279,-0.0097 -0.459824,-0.03346 -0.618081,-0.0646 z m -1.397126,2.912613 c -0.02496,0.06969 -0.07783,0.127363 -0.135897,0.173042 0.01829,-3.51e-4 0.03942,-0.002 0.05817,-0.002 0.04997,-0.04468 0.09883,-0.09064 0.14716,-0.13715 -0.02298,-0.01096 -0.04595,-0.02223 -0.06939,-0.03366 z m -0.284873,0.009 c -0.0047,0.0013 -0.0084,0.002 -0.01268,0.0026 0.0082,0.0082 0.01446,0.01447 0.02106,0.02118 -0.0021,-0.0082 -0.0059,-0.01566 -0.0083,-0.02376 z m 1.623139,16.483905 c -0.01485,0.0068 -0.02957,0.01298 -0.04436,0.01967 l 0.05307,0.192315 0.06613,-0.025 c -0.02739,-0.05764 -0.05288,-0.119093 -0.07486,-0.187025 z" /><path
   id="path849"
   style="fill:#ffffff;stroke-width:0.189707"
   d="m 49.645265,18.407766 c -0.752942,0.01787 -1.976325,0.385674 -1.976325,2.587309 V 93.968349 L 64.219351,99.42973 V 35.644282 c 0,-2.980001 1.279178,-4.983564 3.350562,-4.293169 2.6989,0.780551 3.226653,3.534814 3.226653,6.520042 v 23.957937 c 0,1.417167 0.979167,1.965306 1.114794,2.034556 9.781488,4.266983 17.316736,-1.021614 17.316736,-14.192419 3.17e-4,-14.031448 -4.747703,-20.261528 -18.76219,-25.251214 -4.884147,-1.71546 -13.492999,-4.429967 -20.287224,-5.968423 -0.08373,-0.0168 -0.28243,-0.04979 -0.533417,-0.04382 z" /><polygon
   style="fill:#ffffff"
   points="163.841,374.242 186.892,381.557 186.892,365.857 "
   id="polygon857"
   transform="matrix(0.18604132,0,0,0.19344378,10.230366,5.5049527)" /><polygon
   style="fill:#ffffff"
   points="163.498,290.027 186.892,297.451 186.892,281.71 "
   id="polygon859"
   transform="matrix(0.18604132,0,0,0.19344378,10.230366,5.5049527)" /><polygon
   style="fill:#ffffff;fill-opacity:1"
   points="364.726,433.522 288.669,409.385 275.94,413.919 275.94,465.419 "
   id="polygon861"
   transform="matrix(0.18604132,0,0,0.19344378,15.352814,9.3971368)" /><path
   style="fill:#ffffff;stroke-width:0.189707"
   d="m 68.321753,72.175257 c -0.389941,0.128446 -0.600542,0.205435 -0.600542,0.205435 l -1.031596,0.360577 V 83.086067 L 83.13027,77.061841 Z"
   id="path865" /><path
   style="fill:#ffffff;stroke-width:0.189707"
   d="m 41.74409,61.203603 c -23.24549,8.592966 -22.166821,8.14959 -24.182953,9.056839 l 14.162769,4.673407 13.276277,-4.937455 v -7.718215 z"
   id="path873" /><path
   style="fill:#ffffff;stroke:none;stroke-width:0.189707px;stroke-linecap:butt;stroke-linejoin:miter;stroke-opacity:1"
   d="m 44.999996,79.314779 3.12e-4,5.907785 -7.774036,-3.003433 3.485293,-4.319395 z"
   id="path1327" /></svg>
