<?xml version="1.0" encoding="UTF-8" standalone="no"?>
<svg
   xmlns:dc="http://purl.org/dc/elements/1.1/"
   xmlns:cc="http://creativecommons.org/ns#"
   xmlns:rdf="http://www.w3.org/1999/02/22-rdf-syntax-ns#"
   xmlns:svg="http://www.w3.org/2000/svg"
   xmlns="http://www.w3.org/2000/svg"
   xmlns:sodipodi="http://sodipodi.sourceforge.net/DTD/sodipodi-0.dtd"
   xmlns:inkscape="http://www.inkscape.org/namespaces/inkscape"
   version="1.1"
   id="Capa_1"
   x="0px"
   y="0px"
   viewBox="0 0 250 120"
   xml:space="preserve"
   sodipodi:docname="switch.svg"
   width="250"
   height="120"
   inkscape:version="1.0.1 (c497b03c, 2020-09-10)"><metadata
   id="metadata876"><rdf:RDF><cc:Work
       rdf:about=""><dc:format>image/svg+xml</dc:format><dc:type
         rdf:resource="http://purl.org/dc/dcmitype/StillImage" /><dc:title></dc:title></cc:Work></rdf:RDF></metadata><defs
   id="defs874" /><sodipodi:namedview
   pagecolor="#ffffff"
   bordercolor="#666666"
   borderopacity="1"
   objecttolerance="10"
   gridtolerance="10"
   guidetolerance="10"
   inkscape:pageopacity="0"
   inkscape:pageshadow="2"
   inkscape:window-width="1440"
   inkscape:window-height="900"
   id="namedview872"
   showgrid="true"
   inkscape:zoom="1.6928941"
   inkscape:cx="170.09932"
   inkscape:cy="163.36036"
   inkscape:window-x="0"
   inkscape:window-y="0"
   inkscape:window-maximized="0"
   inkscape:current-layer="Capa_1"><inkscape:grid
     type="xygrid"
     id="grid878" /></sodipodi:namedview>


<g
   id="g841">
</g>
<g
   id="g843">
</g>
<g
   id="g845">
</g>
<g
   id="g847">
</g>
<g
   id="g849">
</g>
<g
   id="g851">
</g>
<g
   id="g853">
</g>
<g
   id="g855">
</g>
<g
   id="g857">
</g>
<g
   id="g859">
</g>
<g
   id="g861">
</g>
<g
   id="g863">
</g>
<g
   id="g865">
</g>
<g
   id="g867">
</g>
<g
   id="g869">
</g>
<path
   style="fill:#e70009;stroke:none;stroke-width:1px;stroke-linecap:butt;stroke-linejoin:miter;stroke-opacity:1;fill-opacity:1"
   d="M 0,0 V 120 H 250 V 0 Z"
   id="path880" /><path
   style="fill:#ffffff;stroke-width:0.185207"
   d="m 152.65369,12.680019 h -22.4966 v 90.558431 h 22.4966 c 12.29769,0 22.30266,-9.124641 22.30266,-20.340263 V 33.020294 c 0,-11.215622 -10.00497,-20.340275 -22.30266,-20.340275 z m -0.097,58.72149 c -6.46952,0 -11.73315,-4.80048 -11.73315,-10.700751 0,-5.900271 5.26363,-10.700751 11.73315,-10.700751 6.46952,0 11.73315,4.80048 11.73315,10.700751 0,5.900271 -5.26363,10.700751 -11.73315,10.700751 z"
   id="path833" /><g
   id="g839"
   transform="matrix(0.19393625,0,0,0.17687195,75.661001,12.680019)"
   style="fill:#ffffff">
	<path
   style="fill:#ffffff"
   d="M 251,512 H 115 C 51.589,512 0,460.411 0,397 V 115 C 0,51.589 51.589,0 115,0 H 251 Z M 115,30 C 68.131,30 30,68.131 30,115 v 282 c 0,46.869 38.131,85 85,85 H 221 V 30 Z"
   id="path835" />
	<path
   style="fill:#ffffff"
   d="M 125.5,211 C 92.141,211 65,183.859 65,150.5 65,117.141 92.141,90 125.5,90 c 33.359,0 60.5,27.141 60.5,60.5 0,33.359 -27.141,60.5 -60.5,60.5 z"
   id="path837" />
</g></svg>
