<?xml version="1.0" encoding="UTF-8" standalone="no"?>
<svg
   xmlns:dc="http://purl.org/dc/elements/1.1/"
   xmlns:cc="http://creativecommons.org/ns#"
   xmlns:rdf="http://www.w3.org/1999/02/22-rdf-syntax-ns#"
   xmlns:svg="http://www.w3.org/2000/svg"
   xmlns="http://www.w3.org/2000/svg"
   xmlns:sodipodi="http://sodipodi.sourceforge.net/DTD/sodipodi-0.dtd"
   xmlns:inkscape="http://www.inkscape.org/namespaces/inkscape"
   version="1.1"
   id="Capa_1"
   x="0px"
   y="0px"
   viewBox="0 0 120 120"
   xml:space="preserve"
   sodipodi:docname="switchSquare.svg"
   width="120"
   height="120"
   inkscape:version="1.0.1 (c497b03c, 2020-09-10)"><metadata
   id="metadata876"><rdf:RDF><cc:Work
       rdf:about=""><dc:format>image/svg+xml</dc:format><dc:type
         rdf:resource="http://purl.org/dc/dcmitype/StillImage" /><dc:title /></cc:Work></rdf:RDF></metadata><defs
   id="defs874" /><sodipodi:namedview
   pagecolor="#ffffff"
   bordercolor="#666666"
   borderopacity="1"
   objecttolerance="10"
   gridtolerance="10"
   guidetolerance="10"
   inkscape:pageopacity="0"
   inkscape:pageshadow="2"
   inkscape:window-width="1440"
   inkscape:window-height="806"
   id="namedview872"
   showgrid="true"
   inkscape:zoom="1.6928941"
   inkscape:cx="170.09932"
   inkscape:cy="163.36036"
   inkscape:window-x="0"
   inkscape:window-y="23"
   inkscape:window-maximized="0"
   inkscape:current-layer="Capa_1"
   inkscape:document-rotation="0"><inkscape:grid
     type="xygrid"
     id="grid878" /></sodipodi:namedview>


<g
   id="g841">
</g>
<g
   id="g843">
</g>
<g
   id="g845">
</g>
<g
   id="g847">
</g>
<g
   id="g849">
</g>
<g
   id="g851">
</g>
<g
   id="g853">
</g>
<g
   id="g855">
</g>
<g
   id="g857">
</g>
<g
   id="g859">
</g>
<g
   id="g861">
</g>
<g
   id="g863">
</g>
<g
   id="g865">
</g>
<g
   id="g867">
</g>
<g
   id="g869">
</g>
<path
   style="fill:#e70009;fill-opacity:1;stroke:none;stroke-width:0.69282px;stroke-linecap:butt;stroke-linejoin:miter;stroke-opacity:1"
   d="M 0,0 V 120 H 120 V 0 Z"
   id="path880" /><path
   style="fill:#ffffff;stroke-width:0.163525"
   d="M 81.131534,14.626618 H 63.557841 V 105 h 17.573693 c 9.606594,0 17.422185,-9.106 17.422185,-20.298705 V 34.925328 c 0,-11.192703 -7.815591,-20.29871 -17.422185,-20.29871 z m -0.07582,58.601492 c -5.053797,0 -9.165592,-4.79067 -9.165592,-10.678884 0,-5.888214 4.111795,-10.678884 9.165592,-10.678884 5.053806,0 9.165599,4.79067 9.165599,10.678884 0,5.888214 -4.111793,10.678884 -9.165599,10.678884 z"
   id="path833" /><g
   id="g839"
   transform="matrix(0.15149735,0,0,0.17651051,20.987082,14.626618)"
   style="fill:#ffffff">
	<path
   style="fill:#ffffff"
   d="M 251,512 H 115 C 51.589,512 0,460.411 0,397 V 115 C 0,51.589 51.589,0 115,0 H 251 Z M 115,30 C 68.131,30 30,68.131 30,115 v 282 c 0,46.869 38.131,85 85,85 H 221 V 30 Z"
   id="path835" />
	<path
   style="fill:#ffffff"
   d="M 125.5,211 C 92.141,211 65,183.859 65,150.5 65,117.141 92.141,90 125.5,90 c 33.359,0 60.5,27.141 60.5,60.5 0,33.359 -27.141,60.5 -60.5,60.5 z"
   id="path837" />
</g></svg>
