<?xml version="1.0" encoding="UTF-8" standalone="no"?>
<svg
   xmlns:dc="http://purl.org/dc/elements/1.1/"
   xmlns:cc="http://creativecommons.org/ns#"
   xmlns:rdf="http://www.w3.org/1999/02/22-rdf-syntax-ns#"
   xmlns:svg="http://www.w3.org/2000/svg"
   xmlns="http://www.w3.org/2000/svg"
   xmlns:sodipodi="http://sodipodi.sourceforge.net/DTD/sodipodi-0.dtd"
   xmlns:inkscape="http://www.inkscape.org/namespaces/inkscape"
   width="100mm"
   height="100mm"
   viewBox="0 0 100 100"
   version="1.1"
   id="svg8"
   inkscape:version="1.0.1 (c497b03c, 2020-09-10)"
   sodipodi:docname="userIcon.svg">
  <defs
     id="defs2" />
  <sodipodi:namedview
     id="base"
     pagecolor="#ffffff"
     bordercolor="#666666"
     borderopacity="1.0"
     inkscape:pageopacity="0.0"
     inkscape:pageshadow="2"
     inkscape:zoom="1.017291"
     inkscape:cx="226.64884"
     inkscape:cy="241.4255"
     inkscape:document-units="mm"
     inkscape:current-layer="layer1"
     inkscape:document-rotation="0"
     showgrid="false"
     inkscape:window-width="1252"
     inkscape:window-height="805"
     inkscape:window-x="74"
     inkscape:window-y="23"
     inkscape:window-maximized="0">
    <inkscape:grid
       type="xygrid"
       id="grid833" />
  </sodipodi:namedview>
  <metadata
     id="metadata5">
    <rdf:RDF>
      <cc:Work
         rdf:about="">
        <dc:format>image/svg+xml</dc:format>
        <dc:type
           rdf:resource="http://purl.org/dc/dcmitype/StillImage" />
        <dc:title />
      </cc:Work>
    </rdf:RDF>
  </metadata>
  <g
     inkscape:label="Layer 1"
     inkscape:groupmode="layer"
     id="layer1">
    <path
       style="fill:#333333;fill-opacity:1;stroke:#000000;stroke-width:0.264583px;stroke-linecap:butt;stroke-linejoin:miter;stroke-opacity:1"
       d="M 0.26008315,-0.78025855 V 99.761411 H 100.80176 V -0.78025855 Z"
       id="path837" />
    <g
       id="g853"
       transform="matrix(0.1631421,0,0,0.14992174,15.702477,10.466816)"
       style="fill:#ffffff">
      <path
         d="m 210.35156,246.63281 c 33.88281,0 63.22266,-12.15234 87.19531,-36.1289 23.97266,-23.97266 36.125,-53.30469 36.125,-87.19141 0,-33.875 -12.15234,-63.210938 -36.1289,-87.191406 C 273.56641,12.152344 244.23047,0 210.35156,0 176.46484,0 147.13281,12.152344 123.16016,36.125 99.1875,60.097656 87.03125,89.433594 87.03125,123.3125 c 0,33.88672 12.15625,63.22266 36.13281,87.19531 23.97656,23.96875 53.3125,36.125 87.1875,36.125 z m 0,0"
         id="path839"
         style="fill:#ffffff" />
      <path
         d="m 426.12891,393.70312 c -0.69141,-9.97656 -2.08985,-20.85937 -4.14844,-32.35156 -2.07813,-11.57812 -4.75391,-22.52344 -7.95703,-32.52734 -3.3086,-10.33985 -7.8086,-20.55078 -13.3711,-30.33594 -5.77343,-10.15625 -12.55468,-19 -20.16406,-26.27734 -7.95703,-7.61328 -17.69922,-13.73438 -28.96484,-18.19922 -11.22657,-4.44141 -23.66797,-6.69141 -36.97657,-6.69141 -5.22656,0 -10.28125,2.14453 -20.04296,8.5 -6.00782,3.91797 -13.03516,8.44922 -20.87891,13.46094 -6.70703,4.27344 -15.79297,8.27734 -27.01563,11.90234 -10.94921,3.54297 -22.0664,5.33985 -33.03906,5.33985 -10.97265,0 -22.08594,-1.79688 -33.04687,-5.33985 -11.21094,-3.62109 -20.29688,-7.625 -26.9961,-11.89843 -7.76953,-4.96485 -14.80078,-9.4961 -20.89843,-13.46875 -9.75,-6.35547 -14.8086,-8.5 -20.03516,-8.5 -13.3125,0 -25.75,2.2539 -36.972656,6.69921 -11.257813,4.45704 -21.003906,10.57813 -28.96875,18.19922 -7.605469,7.28125 -14.390625,16.1211 -20.15625,26.27344 C 20.9375,308.27344 16.4375,318.48047 13.125,328.82812 9.925781,338.83203 7.25,349.77344 5.171875,361.35156 3.113281,372.82812 1.714844,383.71484 1.023438,393.71484 0.34375,403.51172 0,413.67969 0,423.94922 c 0,26.72656 8.496094,48.36328 25.25,64.32031 16.546875,15.74609 38.441406,23.73438 65.066406,23.73438 H 336.84766 c 26.625,0 48.51171,-7.98438 65.0625,-23.73438 16.75781,-15.94531 25.2539,-37.58594 25.2539,-64.32422 -0.004,-10.3164 -0.35156,-20.49219 -1.03515,-30.24219 z m 0,0"
         id="path841"
         style="fill:#ffffff" />
    </g>
  </g>
</svg>
