<?xml version="1.0" encoding="UTF-8" standalone="no"?>
<svg
   xmlns:dc="http://purl.org/dc/elements/1.1/"
   xmlns:cc="http://creativecommons.org/ns#"
   xmlns:rdf="http://www.w3.org/1999/02/22-rdf-syntax-ns#"
   xmlns:svg="http://www.w3.org/2000/svg"
   xmlns="http://www.w3.org/2000/svg"
   xmlns:sodipodi="http://sodipodi.sourceforge.net/DTD/sodipodi-0.dtd"
   xmlns:inkscape="http://www.inkscape.org/namespaces/inkscape"
   version="1.1"
   id="Capa_1"
   x="0px"
   y="0px"
   viewBox="0 0 250 120"
   xml:space="preserve"
   sodipodi:docname="xbone.svg"
   width="250"
   height="120"
   inkscape:version="1.0.1 (c497b03c, 2020-09-10)"><metadata
   id="metadata872"><rdf:RDF><cc:Work
       rdf:about=""><dc:format>image/svg+xml</dc:format><dc:type
         rdf:resource="http://purl.org/dc/dcmitype/StillImage" /><dc:title></dc:title></cc:Work></rdf:RDF></metadata><defs
   id="defs870" /><sodipodi:namedview
   pagecolor="#ffffff"
   bordercolor="#666666"
   borderopacity="1"
   objecttolerance="10"
   gridtolerance="10"
   guidetolerance="10"
   inkscape:pageopacity="0"
   inkscape:pageshadow="2"
   inkscape:window-width="1440"
   inkscape:window-height="900"
   id="namedview868"
   showgrid="true"
   inkscape:zoom="2.5295512"
   inkscape:cx="83.982958"
   inkscape:cy="59.282698"
   inkscape:window-x="0"
   inkscape:window-y="0"
   inkscape:window-maximized="0"
   inkscape:current-layer="Capa_1"><inkscape:grid
     type="xygrid"
     id="grid1435" /></sodipodi:namedview>
<path
   style="fill:#107c11;stroke:none;stroke-width:1px;stroke-linecap:butt;stroke-linejoin:miter;stroke-opacity:1;fill-opacity:1"
   d="M 0,0 V 120 H 250 V 0 Z"
   id="path1437" />
<g
   id="g837">
</g>
<g
   id="g839">
</g>
<g
   id="g841">
</g>
<g
   id="g843">
</g>
<g
   id="g845">
</g>
<g
   id="g847">
</g>
<g
   id="g849">
</g>
<g
   id="g851">
</g>
<g
   id="g853">
</g>
<g
   id="g855">
</g>
<g
   id="g857">
</g>
<g
   id="g859">
</g>
<g
   id="g861">
</g>
<g
   id="g863">
</g>
<g
   id="g865">
</g>
<path
   style="fill:#ffffff;fill-opacity:1;stroke:none;stroke-width:22.6772;stroke-linejoin:round"
   id="path1461"
   sodipodi:type="arc"
   sodipodi:cx="-30"
   sodipodi:cy="-27.5"
   sodipodi:rx="20"
   sodipodi:ry="22.5"
   sodipodi:start="0.92274161"
   sodipodi:end="0.92023183"
   sodipodi:open="true"
   sodipodi:arc-type="arc"
   d="m -17.927267,-9.5616601 a 20,22.5 0 0 1 -28.010346,-4.3452629 20,22.5 0 0 1 3.84488,-31.514359 20,22.5 0 0 1 28.015171,4.305715 20,22.5 0 0 1 -3.809724,31.519763" /><g
   id="g835"
   style="fill:#ffffff;fill-opacity:1"
   transform="matrix(4.4696646,0,0,4.0999534,71.557969,7.3333008)">
	<path
   style="fill:#ffffff;fill-opacity:1"
   d="M 5.733,2.183 C 5.72,2.193 5.71,2.204 5.698,2.214 5.771,2.137 5.876,2.054 5.945,2.009 7.959,0.7 10.286,0 12.868,0 c 2.415,0 4.677,0.667 6.608,1.827 0.14,0.083 0.522,0.345 0.719,0.583 V 2.411 C 18.332,0.357 12.856,4.764 12.856,4.764 10.962,3.304 9.22,2.309 7.923,1.955 6.839,1.658 6.089,1.906 5.733,2.183 Z M 22.305,4.125 C 22.248,4.062 22.186,4.003 22.129,3.938 21.658,3.421 21.079,3.296 20.557,3.33 c -0.475,0.149 -2.67,0.94 -5.375,3.494 0,0 3.045,2.961 4.91,5.988 1.863,3.027 2.977,5.406 2.292,8.708 2.079,-2.285 3.347,-5.321 3.347,-8.655 0,-3.374 -1.299,-6.445 -3.426,-8.74 z m -4.648,9.98 C 16.831,13.178 15.602,11.85 13.979,10.236 13.624,9.883 13.249,9.515 12.855,9.134 c 0,0 -0.593,0.593 -1.365,1.373 v -10e-4 c -0.988,0.998 -2.269,2.3 -2.98,3.06 -1.266,1.351 -4.893,5.594 -5.097,7.973 0,0 -0.807,-1.887 0.964,-6.239 1.157,-2.845 4.653,-7.117 6.113,-8.509 0,0 -1.334,-1.468 -3.008,-2.482 L 7.472,4.306 c 0,0 -0.019,-0.015 -0.049,-0.034 C 6.618,3.792 5.739,3.422 4.893,3.373 4.029,3.434 3.482,4.066 3.482,4.066 c -2.159,2.302 -3.48,5.396 -3.48,8.8 0,7.105 5.76,12.866 12.866,12.866 3.771,0 7.164,-1.626 9.518,-4.211 -10e-4,-0.004 -0.271,-1.7 -2.002,-4.133 -0.407,-0.57 -1.894,-2.349 -2.727,-3.283 z"
   id="path833" />
</g></svg>
